#!OML:ASF F:\VICON\USERDATA\INSTALL\rory3\rory3.ASF
:FULLY-SPECIFIED
:DEGREES
1119
root 1.71187 18.2789 3.37791 -173.353 3.3896 182.201
lowerback 18.2635 -0.449806 -2.54119
upperback 3.43527 -0.462674 1.41293
thorax -6.48492 0.0511634 3.04418
lowerneck -14.3911 -1.21849 -5.49288
upperneck 40.4028 5.5492 -0.138326
head 17.1046 2.87442 2.38343
rclavicle 3.926e-015 -4.57205e-015
rhumerus 59.4418 18.6748 -56.8276
rradius 62.4778
rwrist 33.2504
rhand -5.43813 4.25141
rfingers 7.12502
rthumb 20.3724 -24.7
lclavicle 3.926e-015 -4.57205e-015
lhumerus 18.3506 -11.0263 80.569
lradius 67.7736
lwrist -28.6991
lhand -18.0895 26.9584
lfingers 7.12502
lthumb 8.18397 56.7799
rfemur -70.4573 6.07712 25.7358
rtibia 92.9402
rfoot -25.0773 5.65939
rtoes 7.75831
lfemur -20.4105 4.67287 -20.1215
ltibia 21.5631
lfoot 0.622072 -4.88618
ltoes -12.3578
1120
root 1.68587 18.2423 3.41571 -173.496 3.27575 182.359
lowerback 18.2784 -0.492369 -2.28413
upperback 3.52169 -0.457186 1.39404
thorax -6.40361 0.0520898 2.87458
lowerneck -14.3869 -1.29868 -5.59955
upperneck 40.4042 5.40356 -0.0272874
head 17.1012 2.81268 2.42562
rclavicle 6.4605e-016 -8.15017e-015
rhumerus 59.9224 18.1001 -56.7095
rradius 61.8865
rwrist 33.0571
rhand -5.47579 4.55132
rfingers 7.12502
rthumb 20.3362 -24.4039
lclavicle 6.4605e-016 -8.15017e-015
lhumerus 18.9314 -11.1153 80.6071
lradius 67.5969
lwrist -28.6522
lhand -17.8837 26.9908
lfingers 7.12502
lthumb 8.38261 56.8045
rfemur -70.8771 6.01958 25.7252
rtibia 93.4613
rfoot -24.8988 5.47647
rtoes 6.46135
lfemur -20.7242 4.98822 -20.2071
ltibia 22.239
lfoot -0.262344 -4.94913
ltoes -11.643
1121
root 1.65874 18.2059 3.45055 -173.68 3.25399 182.502
lowerback 18.2782 -0.490018 -2.11311
upperback 3.62836 -0.40384 1.4095
thorax -6.29405 0.0788614 2.77953
lowerneck -14.4128 -1.38151 -5.57593
upperneck 40.4045 5.30588 -0.124671
head 17.1182 2.76174 2.36153
rclavicle -1.92324e-014 1.25234e-014
rhumerus 60.3123 17.5965 -56.5179
rradius 61.3817
rwrist 32.8553
rhand -5.53308 4.88687
rfingers 7.12502
rthumb 20.2812 -24.0742
lclavicle -1.92324e-014 1.25234e-014
lhumerus 19.5391 -11.1658 80.7273
lradius 67.2834
lwrist -28.7946
lhand -17.611 26.9475
lfingers 7.12502
lthumb 8.64573 56.7505
rfemur -71.2229 6.05784 25.6647
rtibia 93.9186
rfoot -24.5112 5.46471
rtoes 5.58227
lfemur -20.683 5.05917 -20.2089
ltibia 22.352
lfoot -0.761492 -4.63594
ltoes -10.9022
1122
root 1.63212 18.1772 3.4834 -173.917 3.26324 182.585
lowerback 18.2912 -0.496147 -2.0346
upperback 3.70578 -0.383486 1.42842
thorax -6.21973 0.0906623 2.74934
lowerneck -14.3699 -1.3978 -5.54622
upperneck 40.5022 5.34643 -0.177712
head 17.1652 2.78394 2.34598
rclavicle -2.5842e-015 -4.57205e-015
rhumerus 60.6075 17.3815 -56.6551
rradius 60.7265
rwrist 33.0029
rhand -5.66889 5.20854
rfingers 7.12502
rthumb 20.1506 -23.7664
lclavicle -2.5842e-015 -4.57205e-015
lhumerus 19.9996 -11.1688 80.8635
lradius 66.8903
lwrist -28.9551
lhand -17.4269 26.7951
lfingers 7.12502
lthumb 8.82337 56.5906
rfemur -71.3924 6.05524 25.5534
rtibia 94.3328
rfoot -24.0936 5.66139
rtoes 4.71109
lfemur -20.3445 5.01237 -20.2227
ltibia 22.0139
lfoot -1.04662 -4.38871
ltoes -10.2276
1123
root 1.60543 18.1555 3.51318 -174.147 3.32726 182.6
lowerback 18.2808 -0.462642 -2.07352
upperback 3.75006 -0.335366 1.48852
thorax -6.16855 0.116761 2.82417
lowerneck -14.2225 -1.44439 -5.72522
upperneck 40.6019 5.38122 -0.14425
head 17.1799 2.7905 2.40322
rclavicle -5.56597e-015 3.47873e-015
rhumerus 60.8217 17.2307 -56.6528
rradius 60.0743
rwrist 33.11
rhand -5.76115 5.61614
rfingers 7.12502
rthumb 20.062 -23.3681
lclavicle -5.56597e-015 3.47873e-015
lhumerus 20.3533 -11.1815 81.0741
lradius 66.395
lwrist -29.1888
lhand -17.5703 26.6814
lfingers 7.12502
lthumb 8.68497 56.4827
rfemur -71.5613 5.99478 25.3736
rtibia 94.7739
rfoot -23.5983 6.0597
rtoes 3.8908
lfemur -19.7851 4.96735 -20.2881
ltibia 21.3895
lfoot -1.40882 -4.44025
ltoes -10.394
1124
root 1.57808 18.1213 3.53969 -174.382 3.47566 182.581
lowerback 18.2258 -0.413775 -2.20501
upperback 3.86187 -0.272497 1.59176
thorax -6.02072 0.152828 2.99349
lowerneck -14.2046 -1.46651 -5.92776
upperneck 40.6104 5.49077 -0.27573
head 17.1839 2.78987 2.40075
rclavicle -1.11319e-014 -1.54058e-014
rhumerus 61.1707 17.1073 -56.4014
rradius 59.4511
rwrist 33.0286
rhand -5.87229 5.85694
rfingers 7.12502
rthumb 19.9551 -23.1385
lclavicle -1.11319e-014 -1.54058e-014
lhumerus 20.8552 -11.1365 81.2662
lradius 65.7366
lwrist -29.3779
lhand -17.6606 26.5185
lfingers 7.12502
lthumb 8.59784 56.3234
rfemur -71.8612 6.04733 25.1088
rtibia 95.2748
rfoot -22.9426 6.5169
rtoes 3.54701
lfemur -19.0738 4.94591 -20.3856
ltibia 20.6369
lfoot -1.84088 -4.25673
ltoes -11.732
1125
root 1.54922 18.0909 3.56293 -174.747 3.63345 182.452
lowerback 18.2849 -0.370832 -2.34028
upperback 4.00621 -0.219085 1.60515
thorax -5.89911 0.186553 3.0717
lowerneck -14.3205 -1.51325 -6.00311
upperneck 40.7809 5.61805 -0.474112
head 17.3204 2.80583 2.36274
rclavicle -1.00138e-014 5.1684e-015
rhumerus 61.518 16.9652 -56.2462
rradius 58.7742
rwrist 32.9232
rhand -6.09645 6.12369
rfingers 7.12502
rthumb 19.7396 -22.894
lclavicle -1.00138e-014 5.1684e-015
lhumerus 21.4259 -11.1377 81.3714
lradius 64.9599
lwrist -29.5073
lhand -17.6048 26.417
lfingers 7.12502
lthumb 8.6517 56.2197
rfemur -72.0009 6.09326 24.7133
rtibia 95.7317
rfoot -22.2762 6.99407
rtoes 3.49989
lfemur -18.2792 4.84957 -20.5935
ltibia 19.8546
lfoot -2.05073 -3.90408
ltoes -12.3676
1126
root 1.52305 18.0736 3.58552 -175.134 3.76409 182.511
lowerback 18.3506 -0.326143 -2.24933
upperback 4.10673 -0.12693 1.60229
thorax -5.83337 0.23526 2.99496
lowerneck -14.258 -1.59875 -6.02222
upperneck 40.9346 5.60837 -0.554561
head 17.3995 2.80081 2.33821
rclavicle -8.10048e-015 1.56046e-014
rhumerus 61.7125 16.7817 -56.1571
rradius 58.0403
rwrist 32.7663
rhand -6.41663 6.44104
rfingers 7.12502
rthumb 19.4318 -22.608
lclavicle -8.10048e-015 1.56046e-014
lhumerus 21.9216 -11.3187 81.3696
lradius 64.1133
lwrist -29.5714
lhand -17.6515 26.5445
lfingers 7.12502
lthumb 8.60663 56.3491
rfemur -71.949 6.15195 24.5562
rtibia 96.0573
rfoot -21.6638 7.34076
rtoes 3.27288
lfemur -17.6079 4.7111 -20.5832
ltibia 19.2293
lfoot -2.17595 -3.64938
ltoes -11.8663
1127
root 1.49969 18.0544 3.61092 -175.37 3.84386 182.56
lowerback 18.3142 -0.290854 -2.20203
upperback 4.13598 -0.0672098 1.60671
thorax -5.78692 0.264202 2.95837
lowerneck -14.0998 -1.67795 -6.14179
upperneck 41.0203 5.53845 -0.480408
head 17.4052 2.77845 2.38326
rclavicle 8.99501e-015 -3.57812e-015
rhumerus 61.8115 16.6509 -56.0062
rradius 57.3375
rwrist 32.5839
rhand -6.84563 6.787
rfingers 7.12502
rthumb 19.0193 -22.3031
lclavicle 8.99501e-015 -3.57812e-015
lhumerus 22.3699 -11.4952 81.3216
lradius 63.2377
lwrist -29.5642
lhand -17.8016 26.6354
lfingers 7.12502
lthumb 8.46177 56.4459
rfemur -72.0943 6.17577 24.4025
rtibia 96.3628
rfoot -21.0527 7.64299
rtoes 2.83707
lfemur -17.2151 4.55887 -20.6188
ltibia 18.8124
lfoot -2.33128 -3.27807
ltoes -11.4354
1128
root 1.47726 18.0405 3.63557 -175.515 3.79375 182.424
lowerback 18.2025 -0.298939 -2.29491
upperback 4.10705 -0.103503 1.58235
thorax -5.75526 0.243986 2.99302
lowerneck -13.94 -1.75062 -6.23689
upperneck 41.1303 5.50474 -0.453463
head 17.4271 2.76989 2.41111
rclavicle 6.63444e-015 -1.44119e-014
rhumerus 61.9359 16.6235 -55.8407
rradius 56.587
rwrist 32.4347
rhand -7.3183 6.97106
rfingers 7.12502
rthumb 18.5647 -22.1631
lclavicle 6.63444e-015 -1.44119e-014
lhumerus 22.8224 -11.6376 81.2559
lradius 62.2864
lwrist -29.4358
lhand -17.7744 26.6393
lfingers 7.12502
lthumb 8.48805 56.4487
rfemur -72.3311 6.01449 24.0451
rtibia 96.6924
rfoot -20.2839 8.14273
rtoes 3.83148
lfemur -17.0198 4.3907 -20.8744
ltibia 18.547
lfoot -2.37729 -2.9038
ltoes -9.99157
1129
root 1.45796 18.0323 3.65564 -175.689 3.69744 182.177
lowerback 18.0378 -0.328623 -2.51576
upperback 4.12202 -0.18718 1.54574
thorax -5.64337 0.202066 3.09725
lowerneck -13.8808 -1.76335 -6.29856
upperneck 41.1876 5.56744 -0.508623
head 17.4467 2.78723 2.41196
rclavicle -1.60519e-014 8.19987e-015
rhumerus 62.2361 16.6057 -55.5092
rradius 55.768
rwrist 32.0603
rhand -7.76001 7.09618
rfingers 7.12502
rthumb 18.1397 -22.078
lclavicle -1.60519e-014 8.19987e-015
lhumerus 23.3462 -11.8175 81.0745
lradius 61.3136
lwrist -29.1463
lhand -17.8645 26.7241
lfingers 7.12502
lthumb 8.40107 56.537
rfemur -72.4672 5.72717 23.6035
rtibia 97.0443
rfoot -19.4414 8.80991
rtoes 5.79334
lfemur -16.8496 4.19115 -21.2435
ltibia 18.3718
lfoot -2.33429 -2.56437
ltoes -8.89843
1130
root 1.44122 18.0251 3.68008 -175.83 3.47272 182.111
lowerback 17.9445 -0.428181 -2.52627
upperback 4.12857 -0.320137 1.53634
thorax -5.57678 0.13547 3.12181
lowerneck -13.9539 -1.71951 -6.22172
upperneck 41.2736 5.71811 -0.636602
head 17.5203 2.84593 2.376
rclavicle -1.76173e-014 6.95746e-016
rhumerus 62.4513 16.6071 -55.1113
rradius 55.0899
rwrist 31.6968
rhand -8.11738 7.05907
rfingers 7.12502
rthumb 17.7959 -22.1467
lclavicle -1.76173e-014 6.95746e-016
lhumerus 23.8573 -12.0665 80.7188
lradius 60.382
lwrist -28.6907
lhand -17.9175 26.7583
lfingers 7.12502
lthumb 8.34997 56.5732
rfemur -72.5821 5.35914 23.4207
rtibia 97.2781
rfoot -18.673 9.16844
rtoes 5.3809
lfemur -16.7491 3.91846 -21.3894
ltibia 18.252
lfoot -2.24069 -2.3848
ltoes -8.45856
1131
root 1.4238 18.0156 3.70666 -175.809 3.20767 181.972
lowerback 17.7377 -0.523729 -2.58966
upperback 4.05467 -0.470518 1.53405
thorax -5.53365 0.0558793 3.18722
lowerneck -13.9829 -1.73646 -6.27685
upperneck 41.4175 5.80051 -0.671474
head 17.6122 2.87317 2.39618
rclavicle 3.47873e-015 -5.86415e-015
rhumerus 62.5826 16.7012 -54.618
rradius 54.4472
rwrist 31.3955
rhand -8.50309 6.82984
rfingers 7.12502
rthumb 17.4247 -22.4092
lclavicle 3.47873e-015 -5.86415e-015
lhumerus 24.2458 -12.3166 80.423
lradius 59.4861
lwrist -28.2401
lhand -18.0232 26.7495
lfingers 7.12502
lthumb 8.24791 56.5685
rfemur -72.9174 4.90894 23.1688
rtibia 97.4128
rfoot -18.8328 9.30494
rtoes 3.07878
lfemur -16.8435 3.6157 -21.6332
ltibia 18.1066
lfoot -2.01479 -2.27447
ltoes -8.33808
1132
root 1.40489 18.009 3.73127 -175.64 3.02094 181.759
lowerback 17.3007 -0.55032 -2.68885
upperback 3.9046 -0.555883 1.45904
thorax -5.45346 0.000316705 3.17825
lowerneck -13.827 -1.8067 -6.39095
upperneck 41.5039 5.68555 -0.485038
head 17.6126 2.84909 2.48363
rclavicle -6.95746e-016 1.03368e-014
rhumerus 62.5074 16.7482 -54.3605
rradius 53.6034
rwrist 31.4442
rhand -9.27824 6.762
rfingers 7.12502
rthumb 16.6786 -22.5415
lclavicle -6.95746e-016 1.03368e-014
lhumerus 24.5965 -12.7013 80.1982
lradius 58.4902
lwrist -27.8556
lhand -18.2145 26.849
lfingers 7.12502
lthumb 8.06335 56.6751
rfemur -73.4487 4.48517 22.8489
rtibia 97.5106
rfoot -18.4307 9.44858
rtoes 2.23069
lfemur -17.0566 3.31726 -21.9518
ltibia 17.8965
lfoot -1.83921 -2.18196
ltoes -8.44327
